<?xml version="1.0" encoding="UTF-8"?>
<svg xmlns="http://www.w3.org/2000/svg" xmlns:xlink="http://www.w3.org/1999/xlink" width="300pt" height="299.999988pt" viewBox="0 0 300 299.999988" version="1.2">
<defs>
<clipPath id="clip1">
  <path d="M 8 26 L 292 26 L 292 291 L 8 291 Z M 8 26 "/>
</clipPath>
<clipPath id="clip2">
  <path d="M 6.234375 106.738281 L 214.761719 -64.773438 L 367.21875 120.582031 L 158.691406 292.09375 Z M 6.234375 106.738281 "/>
</clipPath>
<clipPath id="clip3">
  <path d="M 6.234375 106.738281 L 214.761719 -64.773438 L 367.21875 120.582031 L 158.691406 292.09375 Z M 6.234375 106.738281 "/>
</clipPath>
<clipPath id="clip4">
  <path d="M 19 38 L 271 38 L 271 158 L 19 158 Z M 19 38 "/>
</clipPath>
<clipPath id="clip5">
  <path d="M 6.234375 106.738281 L 214.761719 -64.773438 L 367.21875 120.582031 L 158.691406 292.09375 Z M 6.234375 106.738281 "/>
</clipPath>
<clipPath id="clip6">
  <path d="M 6.234375 106.738281 L 214.761719 -64.773438 L 367.21875 120.582031 L 158.691406 292.09375 Z M 6.234375 106.738281 "/>
</clipPath>
<clipPath id="clip7">
  <path d="M 126 45 L 277 45 L 277 279 L 126 279 Z M 126 45 "/>
</clipPath>
<clipPath id="clip8">
  <path d="M 6.234375 106.738281 L 214.761719 -64.773438 L 367.21875 120.582031 L 158.691406 292.09375 Z M 6.234375 106.738281 "/>
</clipPath>
<clipPath id="clip9">
  <path d="M 6.234375 106.738281 L 214.761719 -64.773438 L 367.21875 120.582031 L 158.691406 292.09375 Z M 6.234375 106.738281 "/>
</clipPath>
</defs>
<g id="surface1">
<g clip-path="url(#clip1)" clip-rule="nonzero">
<g clip-path="url(#clip2)" clip-rule="nonzero">
<g clip-path="url(#clip3)" clip-rule="nonzero">
<path style=" stroke:none;fill-rule:nonzero;fill:rgb(99.21875%,64.709473%,33.329773%);fill-opacity:1;" d="M 288.160156 26.894531 C 288.160156 26.894531 288.160156 26.894531 288.152344 26.898438 C 287.980469 26.902344 287.808594 26.933594 287.632812 26.972656 C 287.601562 26.984375 287.570312 26.992188 287.542969 27 C 287.464844 27.019531 287.382812 27.035156 287.308594 27.054688 L 10.441406 103.953125 C 9.175781 104.300781 8.234375 105.375 8.050781 106.667969 C 7.859375 107.96875 8.460938 109.25 9.574219 109.941406 L 98.332031 164.757812 C 99.449219 165.453125 100.878906 165.410156 101.960938 164.652344 L 255.578125 57.15625 L 120.460938 187.144531 C 119.511719 188.0625 119.191406 189.453125 119.65625 190.683594 L 156.316406 288.351562 C 156.777344 289.578125 157.917969 290.414062 159.230469 290.480469 C 160.070312 290.523438 160.878906 290.242188 161.503906 289.730469 C 161.855469 289.441406 162.148438 289.078125 162.359375 288.660156 L 291.285156 31.734375 C 291.664062 31.03125 291.765625 30.203125 291.582031 29.421875 C 291.578125 29.417969 291.585938 29.414062 291.578125 29.40625 C 291.539062 29.234375 291.480469 29.070312 291.417969 28.910156 C 291.40625 28.894531 291.398438 28.875 291.390625 28.855469 C 291.324219 28.703125 291.246094 28.554688 291.152344 28.410156 C 291.136719 28.378906 291.117188 28.355469 291.097656 28.332031 C 291.042969 28.242188 291 28.160156 290.933594 28.078125 C 290.230469 27.222656 289.183594 26.816406 288.160156 26.894531 Z M 159.847656 278.957031 L 126.601562 190.386719 L 276.792969 45.898438 Z M 99.964844 158 L 19.480469 108.292969 L 270.71875 38.511719 Z M 99.964844 158 "/>
</g>
</g>
</g>
<g clip-path="url(#clip4)" clip-rule="nonzero">
<g clip-path="url(#clip5)" clip-rule="nonzero">
<g clip-path="url(#clip6)" clip-rule="nonzero">
<path style=" stroke:none;fill-rule:nonzero;fill:rgb(98.039246%,47.059631%,0%);fill-opacity:1;" d="M 270.71875 38.511719 L 99.964844 158 L 19.480469 108.292969 Z M 270.71875 38.511719 "/>
</g>
</g>
</g>
<g clip-path="url(#clip7)" clip-rule="nonzero">
<g clip-path="url(#clip8)" clip-rule="nonzero">
<g clip-path="url(#clip9)" clip-rule="nonzero">
<path style=" stroke:none;fill-rule:nonzero;fill:rgb(98.039246%,47.059631%,0%);fill-opacity:1;" d="M 276.792969 45.898438 L 159.847656 278.957031 L 126.601562 190.386719 Z M 276.792969 45.898438 "/>
</g>
</g>
</g>
</g>
</svg>
